<svg width="20" height="20" viewBox="0 0 20 20" fill="none" xmlns="http://www.w3.org/2000/svg">
<g id="phone-call-01">
<path id="Icon (Stroke)" fill-rule="evenodd" clip-rule="evenodd" d="M11.0868 1.59766C11.1249 1.25459 11.434 1.00738 11.777 1.04549C13.609 1.24901 15.3173 2.06939 16.6215 3.37195C17.9257 4.67451 18.7483 6.38182 18.9541 8.21354C18.9926 8.55656 18.7458 8.86588 18.4028 8.90442C18.0598 8.94297 17.7505 8.69614 17.7119 8.35312C17.5378 6.8032 16.8418 5.35856 15.7382 4.25639C14.6347 3.15423 13.1891 2.46005 11.639 2.28784C11.2959 2.24973 11.0487 1.94073 11.0868 1.59766ZM5.01484 3.69927C4.71923 3.54976 4.37014 3.54976 4.07453 3.69927C3.94838 3.76308 3.80987 3.89048 3.33226 4.36809L3.2009 4.49945C2.74042 4.95992 2.59088 5.11636 2.4733 5.32567C2.3391 5.56456 2.23222 5.97554 2.23304 6.24955C2.23377 6.49446 2.27391 6.64894 2.41057 7.13044C3.0997 9.55838 4.39975 11.8496 6.31245 13.7623C8.22515 15.675 10.5163 16.975 12.9443 17.6641C13.4258 17.8008 13.5803 17.841 13.8252 17.8417C14.0992 17.8425 14.5102 17.7356 14.7491 17.6014C14.9584 17.4838 15.1148 17.3343 15.5753 16.8738L15.7066 16.7425C16.1842 16.2648 16.3116 16.1263 16.3754 16.0002C16.525 15.7046 16.525 15.3555 16.3754 15.0599C16.3116 14.9337 16.1842 14.7952 15.7066 14.3176L16.1486 13.8757L15.7066 14.3176L15.5442 14.1552C15.2303 13.8413 15.1397 13.7555 15.062 13.705C14.7168 13.4805 14.2717 13.4805 13.9264 13.705C13.8487 13.7555 13.7581 13.8413 13.4442 14.1552C13.4381 14.1613 13.432 14.1674 13.4259 14.1736C13.3491 14.2505 13.2664 14.3334 13.1675 14.4042L12.8037 13.896L13.1675 14.4042C12.8137 14.6576 12.3282 14.7403 11.9104 14.6186C11.794 14.5846 11.6987 14.5387 11.6115 14.4968C11.6054 14.4938 11.5993 14.4909 11.5932 14.488C10.3225 13.8778 9.13209 13.0464 8.08022 11.9945C7.02834 10.9426 6.19687 9.75227 5.58677 8.48154C5.58385 8.47546 5.5809 8.46934 5.57794 8.46319C5.536 8.37606 5.49009 8.2807 5.45617 8.16433C5.33438 7.74652 5.41716 7.26101 5.67052 6.90718L5.67053 6.90718C5.74133 6.8083 5.82417 6.72566 5.90115 6.64887C5.90731 6.64272 5.91343 6.63662 5.9195 6.63054C6.2334 6.31664 6.31918 6.22602 6.3697 6.14831L6.89369 6.48899L6.3697 6.14831C6.59418 5.80306 6.59418 5.35796 6.3697 5.01271C6.31918 4.935 6.2334 4.84438 5.9195 4.53048L5.75711 4.36809C5.2795 3.89048 5.14099 3.76308 5.01484 3.69927ZM3.51035 2.58384C4.16068 2.2549 4.92869 2.2549 5.57902 2.58384C5.90831 2.75039 6.19754 3.04008 6.57127 3.4144C6.59418 3.43735 6.61741 3.46062 6.64099 3.4842L6.80338 3.64659C6.81891 3.66212 6.83423 3.67743 6.84934 3.69252C7.09569 3.93861 7.2858 4.12852 7.41767 4.33134L6.89369 4.67203L7.41767 4.33134C7.91152 5.09091 7.91152 6.07011 7.41767 6.82968C7.2858 7.0325 7.09569 7.22241 6.84933 7.46851C6.83423 7.4836 6.81891 7.4989 6.80338 7.51443C6.75302 7.56479 6.72576 7.59216 6.70564 7.61366C6.69678 7.62312 6.69201 7.62861 6.68953 7.63156L6.68736 7.63424L6.68684 7.63492C6.68684 7.63492 6.68684 7.63492 6.68684 7.63492C6.65685 7.67681 6.6418 7.76506 6.65622 7.81451C6.6569 7.81684 6.65806 7.82111 6.66484 7.8367C6.674 7.85778 6.6869 7.88486 6.71361 7.94051C7.2635 9.08581 8.01335 10.1599 8.9641 11.1106C9.91486 12.0614 10.9889 12.8112 12.1342 13.3611L11.8637 13.9245L12.1342 13.3611C12.1899 13.3878 12.2169 13.4007 12.238 13.4099C12.2531 13.4164 12.2576 13.4177 12.26 13.4184L12.2602 13.4185C12.3097 13.4329 12.3979 13.4179 12.4398 13.3879L12.4405 13.3874L12.4432 13.3852C12.4461 13.3827 12.4516 13.3779 12.4611 13.3691C12.4826 13.349 12.5099 13.3217 12.5603 13.2713C12.5758 13.2558 12.5911 13.2405 12.6062 13.2254C12.8523 12.979 13.0422 12.7889 13.245 12.657C14.0046 12.1632 14.9838 12.1632 15.7434 12.657C15.9462 12.7889 16.1361 12.979 16.3822 13.2254C16.3973 13.2405 16.4126 13.2558 16.4281 13.2713L15.9862 13.7133L16.4281 13.2713L16.5905 13.4337C16.6141 13.4573 16.6374 13.4805 16.6603 13.5035C17.0346 13.8772 17.3243 14.1664 17.4909 14.4957C17.8198 15.146 17.8198 15.914 17.4909 16.5644C17.3243 16.8937 17.0346 17.1829 16.6603 17.5566C16.6374 17.5795 16.6141 17.6028 16.5905 17.6263L16.4592 17.7577C16.4433 17.7736 16.4276 17.7893 16.412 17.8048C16.0153 18.2018 15.7373 18.48 15.3613 18.6912C14.9343 18.9311 14.3111 19.0931 13.8214 19.0917C13.3907 19.0904 13.0802 19.0022 12.6416 18.8776C12.6288 18.874 12.616 18.8703 12.603 18.8666C9.97525 18.1208 7.49584 16.7134 5.42857 14.6461C3.3613 12.5789 1.9539 10.0995 1.20807 7.47175C1.20438 7.45875 1.20072 7.44586 1.19709 7.43309C1.07251 6.99452 0.984323 6.68406 0.983042 6.25327C0.981585 5.76358 1.14364 5.14041 1.38348 4.71346L1.38348 4.71346C1.59472 4.33743 1.87292 4.0594 2.26988 3.66268C2.28541 3.64716 2.30112 3.63146 2.31702 3.61557L2.44838 3.4842C2.47196 3.46062 2.49519 3.43735 2.5181 3.4144C2.89183 3.04008 3.18106 2.75039 3.51035 2.58384L3.79244 3.14156L3.51035 2.58384ZM11.0946 4.88032C11.1607 4.54153 11.4889 4.32047 11.8277 4.38657C12.7637 4.56919 13.624 5.02698 14.2983 5.70134C14.9727 6.3757 15.4305 7.23594 15.6131 8.17198C15.6792 8.51077 15.4582 8.839 15.1194 8.9051C14.7806 8.9712 14.4523 8.75014 14.3862 8.41135C14.2513 7.7195 13.9129 7.08366 13.4145 6.58522C12.916 6.08678 12.2802 5.74842 11.5883 5.61343C11.2495 5.54733 11.0285 5.21911 11.0946 4.88032Z" fill="white" fill-opacity="0.9"/>
</g>
</svg>
